<svg width="16" height="13" viewBox="0 0 16 13" fill="none" xmlns="http://www.w3.org/2000/svg">
<path fill-rule="evenodd" clip-rule="evenodd" d="M1.07448 5.5762C5.27012 3.74823 8.06787 2.54311 9.46773 1.96086C13.4646 0.298421 14.2951 0.0096375 14.8365 0.000101673C14.9555 -0.00199562 15.2217 0.0275105 15.3942 0.167431C15.5398 0.285577 15.5798 0.445176 15.599 0.557191C15.6182 0.669207 15.642 0.924381 15.6231 1.12377C15.4065 3.39952 14.4693 8.92219 13.9925 11.4711C13.7907 12.5496 13.3935 12.9112 13.0089 12.9466C12.1731 13.0235 11.5385 12.3943 10.729 11.8636C9.46225 11.0333 8.74664 10.5164 7.51708 9.70614C6.09612 8.76975 7.01727 8.25509 7.82707 7.41399C8.039 7.19387 11.7215 3.84436 11.7928 3.54051C11.8017 3.5025 11.81 3.36085 11.7258 3.28605C11.6416 3.21126 11.5174 3.23683 11.4278 3.25718C11.3008 3.28601 9.27719 4.62352 5.35708 7.26971C4.78269 7.66413 4.26243 7.8563 3.79629 7.84623C3.28241 7.83513 2.29392 7.55568 1.55907 7.31681C0.657757 7.02382 -0.0585914 6.86892 0.00378651 6.37135C0.0362768 6.11218 0.393175 5.84713 1.07448 5.5762Z" fill="url(#paint0_linear_322_2146)"/>
<defs>
<linearGradient id="paint0_linear_322_2146" x1="15.3709" y1="0.086354" x2="6.85072" y2="9.35497" gradientUnits="userSpaceOnUse">
<stop offset="1" stop-color="white"/>
</linearGradient>
</defs>
</svg>
