<svg width="27" height="27" viewBox="0 0 27 27" fill="none" xmlns="http://www.w3.org/2000/svg">
<rect width="27" height="27" rx="7" fill="#AD4FE4"/>
<path d="M13.5 22.4784C14.1458 22.4784 14.7527 22.2549 15.3208 21.8078C15.889 21.3608 16.3888 20.7337 16.8203 19.9264C17.2519 19.1193 17.5903 18.1708 17.8355 17.0811C18.0808 15.9914 18.2034 14.8039 18.2034 13.5186C18.2034 12.2333 18.0823 11.0427 17.8402 9.94681C17.598 8.85089 17.2612 7.89779 16.8296 7.08749C16.3981 6.2772 15.8983 5.64853 15.3301 5.20147C14.762 4.75441 14.1519 4.53088 13.5 4.53088C12.848 4.53088 12.238 4.75441 11.6698 5.20147C11.1017 5.64853 10.6034 6.2772 10.175 7.08749C9.74656 7.89779 9.40972 8.85089 9.16446 9.94681C8.9192 11.0427 8.79657 12.2333 8.79657 13.5186C8.79657 14.8039 8.9192 15.9914 9.16446 17.0811C9.40972 18.1708 9.74811 19.1193 10.1796 19.9264C10.6112 20.7337 11.111 21.3608 11.6792 21.8078C12.2473 22.2549 12.8542 22.4784 13.5 22.4784ZM13.5 5.65784C13.9532 5.65784 14.3879 5.8674 14.8039 6.28652C15.2199 6.70563 15.5893 7.27843 15.9122 8.0049C16.2351 8.73137 16.4897 9.56805 16.676 10.5149C16.8622 11.4618 16.9554 12.4631 16.9554 13.5186C16.9554 14.5618 16.8622 15.5521 16.676 16.4897C16.4897 17.4273 16.2351 18.2608 15.9122 18.9904C15.5893 19.72 15.2199 20.2943 14.8039 20.7134C14.3879 21.1326 13.9532 21.3421 13.5 21.3421C13.0467 21.3421 12.6121 21.1326 12.1961 20.7134C11.7801 20.2943 11.4106 19.72 11.0877 18.9904C10.7649 18.2608 10.5103 17.4273 10.324 16.4897C10.1377 15.5521 10.0446 14.5618 10.0446 13.5186C10.0446 12.4631 10.1377 11.4618 10.324 10.5149C10.5103 9.56805 10.7649 8.73137 11.0877 8.0049C11.4106 7.27843 11.7801 6.70563 12.1961 6.28652C12.6121 5.8674 13.0467 5.65784 13.5 5.65784ZM12.8946 4.66127V22.3015H14.1147V4.66127H12.8946ZM13.5 17.0019C12.5438 17.0019 11.6372 17.0811 10.7804 17.2394C9.92352 17.3978 9.15204 17.6244 8.46593 17.9193C7.77982 18.2143 7.21944 18.5604 6.7848 18.9578L7.72549 19.7308C8.13529 19.408 8.62736 19.1332 9.20171 18.9066C9.77605 18.6799 10.4249 18.5092 11.1483 18.3944C11.8716 18.2795 12.6555 18.222 13.5 18.222C14.3445 18.222 15.1284 18.2795 15.8517 18.3944C16.5751 18.5092 17.224 18.6799 17.7983 18.9066C18.3726 19.1332 18.8647 19.408 19.2745 19.7308L20.2152 18.9578C19.7806 18.5604 19.2202 18.2143 18.5341 17.9193C17.848 17.6244 17.0765 17.3978 16.2196 17.2394C15.3627 17.0811 14.4562 17.0019 13.5 17.0019ZM22.0965 12.8853H4.90343V14.1054H22.0965V12.8853ZM13.5 10.0446C14.4562 10.0446 15.3627 9.96543 16.2196 9.8071C17.0765 9.64877 17.848 9.42213 18.5341 9.1272C19.2202 8.83227 19.7806 8.48611 20.2152 8.08872L19.2745 7.31568C18.8647 7.63856 18.3726 7.91332 17.7983 8.13995C17.224 8.36658 16.5751 8.53733 15.8517 8.6522C15.1284 8.76707 14.3445 8.8245 13.5 8.8245C12.6555 8.8245 11.8716 8.76707 11.1483 8.6522C10.4249 8.53733 9.77605 8.36658 9.20171 8.13995C8.62736 7.91332 8.13529 7.63856 7.72549 7.31568L6.7848 8.08872C7.21944 8.48611 7.77982 8.83227 8.46593 9.1272C9.15204 9.42213 9.92352 9.64877 10.7804 9.8071C11.6372 9.96543 12.5438 10.0446 13.5 10.0446ZM13.5 23C14.7977 23 16.0194 22.7516 17.1649 22.2549C18.3105 21.7582 19.3211 21.072 20.1965 20.1965C21.072 19.3211 21.7582 18.3105 22.2549 17.1649C22.7516 16.0194 23 14.7977 23 13.5C23 12.2023 22.7516 10.9806 22.2549 9.83504C21.7582 8.68946 21.072 7.67892 20.1965 6.80342C19.3211 5.92794 18.309 5.24183 17.1603 4.7451C16.0116 4.24837 14.7884 4 13.4907 4C12.193 4 10.9713 4.24837 9.82573 4.7451C8.68014 5.24183 7.67116 5.92794 6.79877 6.80342C5.92639 7.67892 5.24183 8.68946 4.7451 9.83504C4.24837 10.9806 4 12.2023 4 13.5C4 14.7977 4.24837 16.0194 4.7451 17.1649C5.24183 18.3105 5.92794 19.3211 6.80342 20.1965C7.67892 21.072 8.68946 21.7582 9.83504 22.2549C10.9806 22.7516 12.2023 23 13.5 23ZM13.5 21.7334C12.3761 21.7334 11.3175 21.5176 10.324 21.086C9.33055 20.6544 8.45506 20.0599 7.69754 19.3024C6.94003 18.5449 6.34551 17.6694 5.91397 16.676C5.48243 15.6825 5.26666 14.6238 5.26666 13.5C5.26666 12.3761 5.48243 11.3175 5.91397 10.324C6.34551 9.33055 6.93848 8.45506 7.69289 7.69754C8.4473 6.94003 9.32123 6.34551 10.3147 5.91397C11.3082 5.48243 12.3668 5.26666 13.4907 5.26666C14.6146 5.26666 15.6732 5.48243 16.6666 5.91397C17.6601 6.34551 18.5372 6.94003 19.2977 7.69754C20.0584 8.45506 20.6544 9.33055 21.086 10.324C21.5176 11.3175 21.7334 12.3761 21.7334 13.5C21.7334 14.6238 21.5176 15.6825 21.086 16.676C20.6544 17.6694 20.0599 18.5449 19.3024 19.3024C18.5449 20.0599 17.6694 20.6544 16.676 21.086C15.6825 21.5176 14.6238 21.7334 13.5 21.7334Z" fill="white"/>
</svg>
