<svg width="36" height="36" viewBox="0 0 36 36" fill="none" xmlns="http://www.w3.org/2000/svg">
<g clip-path="url(#clip0_325_2281)">
<path d="M18 36C27.9411 36 36 27.9411 36 18C36 8.05887 27.9411 0 18 0C8.05887 0 0 8.05887 0 18C0 27.9411 8.05887 36 18 36Z" fill="#F0F0F0"/>
<path d="M17.9996 0C10.2602 0 3.66241 4.88475 1.11914 11.7392H34.88C32.3367 4.88475 25.7389 0 17.9996 0V0Z" fill="#A2001D"/>
<path d="M17.9996 35.9999C25.7389 35.9999 32.3367 31.1152 34.88 24.2607H1.11914C3.66241 31.1152 10.2602 35.9999 17.9996 35.9999Z" fill="#0052B4"/>
</g>
<defs>
<clipPath id="clip0_325_2281">
<rect width="36" height="36" fill="white"/>
</clipPath>
</defs>
</svg>
