<svg width="27" height="27" viewBox="0 0 27 27" fill="none" xmlns="http://www.w3.org/2000/svg">
<rect width="27" height="27" rx="7" fill="#00C37F"/>
<path fill-rule="evenodd" clip-rule="evenodd" d="M21.2549 11.9295C20.9544 8.84687 19.132 4 13.4999 4C7.86785 4 6.04543 8.84687 5.74492 11.9295C4.69074 12.3296 3.99538 13.3417 4.00002 14.4692V15.8264C4.00002 17.3254 5.21526 18.5406 6.71429 18.5406C8.21333 18.5406 9.42854 17.3254 9.42854 15.8264V14.4692C9.42367 13.366 8.75385 12.3747 7.73214 11.9586C7.92601 10.1749 8.876 5.93875 13.4999 5.93875C18.1238 5.93875 19.0641 10.1749 19.258 11.9586C18.2383 12.3756 17.5719 13.3676 17.5713 14.4692V15.8264C17.5755 16.8684 18.1738 17.8168 19.1126 18.2692C18.7054 19.035 17.6682 20.0722 15.1188 20.3824C14.6091 19.6086 13.6232 19.3035 12.7656 19.6543C11.9079 20.0051 11.4185 20.9138 11.5973 21.8229C11.7761 22.7321 12.5733 23.3875 13.4999 23.3875C14.2321 23.3834 14.8996 22.9672 15.2254 22.3115C19.384 21.8365 20.7121 19.6942 21.1289 18.434C22.2566 18.0687 23.015 17.0116 22.9998 15.8264V14.4692C23.0044 13.3417 22.3091 12.3296 21.2549 11.9295Z" fill="white"/>
</svg>
